# xmcd CD database file
#
# Track frame offsets:
#	150
#	59643
#	108515
#	150816
#	165945
#	201310
#	209432
#	216921
#	243086
#
# Disc length: 3550 seconds
#
# Revision: 0
# Processed by: cddbd v1.5PL3 Copyright (c) Steve Scherf et al.
# Submitted via: CDex 1.50
#
DISCID=770ddc09
DTITLE=Joe Pass - Joe Pass At the Guitar Workshop
DYEAR=1900
DGENRE=Jazz
TTITLE0=The Five Basic Forms
TTITLE1=8th note melodic continuity (8 color tones)
TTITLE2=Georgia On My Mind
TTITLE3=Georgia On My Mind (Analysis)
TTITLE4='Wave' and Discussion
TTITLE5=Fingerstyle or Pick?
TTITLE6=Further Analysis on 'Wave'
TTITLE7=St. Louis Blues (Duet with Bruce Clarke)
TTITLE8=St. Louis Blues (Analysis)
EXTD=
EXTT0=
EXTT1=
EXTT2=
EXTT3=
EXTT4=
EXTT5=
EXTT6=
EXTT7=
EXTT8=
PLAYORDER=
